<svg width="17" height="22" viewBox="0 0 17 22" fill="none" xmlns="http://www.w3.org/2000/svg">
<path d="M6.5 0.75C6.08579 0.75 5.75 1.08579 5.75 1.5V2.25H1.5C1.08579 2.25 0.75 2.58579 0.75 3C0.75 3.41421 1.08579 3.75 1.5 3.75H15.5C15.9142 3.75 16.25 3.41421 16.25 3C16.25 2.58579 15.9142 2.25 15.5 2.25H11.25V1.5C11.25 1.08579 10.9142 0.75 10.5 0.75H6.5Z" fill="#F06A6D"/>
<path d="M6.5 9.14999C6.91421 9.14999 7.25 9.48578 7.25 9.89999L7.25 16.9C7.25 17.3142 6.91421 17.65 6.5 17.65C6.08579 17.65 5.75 17.3142 5.75 16.9L5.75 9.89999C5.75 9.48578 6.08579 9.14999 6.5 9.14999Z" fill="#F06A6D"/>
<path d="M11.25 9.89999C11.25 9.48578 10.9142 9.14999 10.5 9.14999C10.0858 9.14999 9.75 9.48578 9.75 9.89999V16.9C9.75 17.3142 10.0858 17.65 10.5 17.65C10.9142 17.65 11.25 17.3142 11.25 16.9V9.89999Z" fill="#F06A6D"/>
<path fill-rule="evenodd" clip-rule="evenodd" d="M2.49142 6.41718C2.53363 6.03735 2.85468 5.75 3.23684 5.75H13.7632C14.1453 5.75 14.4664 6.03735 14.5086 6.41718L14.7087 8.21852C15.0715 11.4838 15.0715 14.7793 14.7087 18.0446L14.689 18.222C14.545 19.5181 13.5404 20.5517 12.2489 20.7325C9.76176 21.0807 7.23823 21.0807 4.75108 20.7325C3.45954 20.5517 2.455 19.5181 2.31098 18.222L2.29128 18.0446C1.92846 14.7793 1.92846 11.4838 2.29128 8.21852L2.49142 6.41718ZM3.90812 7.25L3.7821 8.38417C3.43152 11.5394 3.43152 14.7238 3.7821 17.879L3.8018 18.0563C3.87011 18.671 4.34652 19.1612 4.95905 19.247C7.30822 19.5758 9.69177 19.5758 12.0409 19.247C12.6535 19.1612 13.1299 18.671 13.1982 18.0563L13.2179 17.879C13.5685 14.7238 13.5685 11.5394 13.2179 8.38417L13.0919 7.25H3.90812Z" fill="#F06A6D"/>
<path d="M6.5 0.75C6.08579 0.75 5.75 1.08579 5.75 1.5V2.25H1.5C1.08579 2.25 0.75 2.58579 0.75 3C0.75 3.41421 1.08579 3.75 1.5 3.75H15.5C15.9142 3.75 16.25 3.41421 16.25 3C16.25 2.58579 15.9142 2.25 15.5 2.25H11.25V1.5C11.25 1.08579 10.9142 0.75 10.5 0.75H6.5Z" stroke="black" stroke-linecap="round" stroke-linejoin="round"/>
<path d="M6.5 9.14999C6.91421 9.14999 7.25 9.48578 7.25 9.89999L7.25 16.9C7.25 17.3142 6.91421 17.65 6.5 17.65C6.08579 17.65 5.75 17.3142 5.75 16.9L5.75 9.89999C5.75 9.48578 6.08579 9.14999 6.5 9.14999Z" stroke="black" stroke-linecap="round" stroke-linejoin="round"/>
<path d="M11.25 9.89999C11.25 9.48578 10.9142 9.14999 10.5 9.14999C10.0858 9.14999 9.75 9.48578 9.75 9.89999V16.9C9.75 17.3142 10.0858 17.65 10.5 17.65C10.9142 17.65 11.25 17.3142 11.25 16.9V9.89999Z" stroke="black" stroke-linecap="round" stroke-linejoin="round"/>
<path fill-rule="evenodd" clip-rule="evenodd" d="M2.49142 6.41718C2.53363 6.03735 2.85468 5.75 3.23684 5.75H13.7632C14.1453 5.75 14.4664 6.03735 14.5086 6.41718L14.7087 8.21852C15.0715 11.4838 15.0715 14.7793 14.7087 18.0446L14.689 18.222C14.545 19.5181 13.5404 20.5517 12.2489 20.7325C9.76176 21.0807 7.23823 21.0807 4.75108 20.7325C3.45954 20.5517 2.455 19.5181 2.31098 18.222L2.29128 18.0446C1.92846 14.7793 1.92846 11.4838 2.29128 8.21852L2.49142 6.41718ZM3.90812 7.25L3.7821 8.38417C3.43152 11.5394 3.43152 14.7238 3.7821 17.879L3.8018 18.0563C3.87011 18.671 4.34652 19.1612 4.95905 19.247C7.30822 19.5758 9.69177 19.5758 12.0409 19.247C12.6535 19.1612 13.1299 18.671 13.1982 18.0563L13.2179 17.879C13.5685 14.7238 13.5685 11.5394 13.2179 8.38417L13.0919 7.25H3.90812Z" stroke="black" stroke-linecap="round" stroke-linejoin="round"/>
</svg>
